<mxfile host="app.diagrams.net" modified="2024-05-10T01:36:56.948Z" agent="Mozilla/5.0 (Windows NT 10.0; Win64; x64) AppleWebKit/537.36 (KHTML, like Gecko) Chrome/124.0.0.0 Safari/537.36" version="24.2.9" etag="lq1yPh-0LfDIYie9X-Zj" type="github">
  <diagram name="第 1 页" id="ZPhWKLfcrPROWrXb0PwC">
    <mxGraphModel>
      <root>
        <mxCell id="0" />
        <mxCell id="1" parent="0" />
      </root>
    </mxGraphModel>
  </diagram>
</mxfile>
